<svg xmlns="http://www.w3.org/2000/svg" width="1440" height="29" viewBox="0 0 1440 29"><path fill="#140a16" d="M1031.981 4.394l-3.078 2.94-3.07-2.94zm-466.315 0l-3.07 2.94-3.078-2.94zM347.41 11.098h4.993l-.02.02h-4.953zm938.134-1.967h-1.301v1.282h1.301zm-4.98 0h-1.302v3.85h1.301zm-10.077 2.567h-1.3v1.282h1.3zm0-2.567h-1.3v1.282h1.3zm-816.924 2.567h-1.3v1.282h1.3zm0-2.567h-1.3v1.282h1.3zm-10.077 0h-1.3v3.85h1.3zm-4.98 0h-1.3v1.282h1.3zm-155.63 4.839h-3.897v3.85h3.896zm-15.6 0h-1.297v3.85h1.298zm-9.09 0h-1.298v3.85h1.297zm-1.969 0h-1.3v3.85h1.3zm1112.507 3.85h8.253l-4.131-4.073 2.473-2.63H1440V29H0V11.112h203.912l5.74-6.01h9.69L231.32 17.82l.017-.017.014.017 6.878-6.702H347.43l2.474 2.63-4.131 4.072h8.253l-4.122-4.073 2.478-2.63h61.285l3.52-3.302L424.123.96l4.625 4.244 23.435-.008h3.757l9.494 9.61h25.223l5.43-5.223 55.695.029 4.329 4.132 6.486-6.41 2.169 2.278 123.87-.029L698.206 0l18.038 17.82.006-.01.009.01 6.789-6.708h2.881l1.574 1.556-2.5 2.463h4.991l-2.49-2.463 1.546-1.525 58.45-.024v-.007l10.522.003 5.978-.003v.004l115.45.027 1.545 1.525-2.49 2.463h4.993l-2.503-2.463 1.575-1.556h2.882l6.79 6.708.008-.01.005.01L950.293 0l9.571 9.583 66.87.029 2.169-2.279 6.487 6.411 4.327-4.086 186.947-.029 5.428 5.178h25.224l9.494-9.658 27.193.008 4.623-4.197 6.936 6.855 3.52 3.303h61.285l2.479 2.63zm1.643-6.702l-.02-.02h4.992l-.02.02z"/></svg>